<svg xmlns="http://www.w3.org/2000/svg" viewBox="0 0 1600 620">
<defs>
  <linearGradient id="sky" x1="0" y1="0" x2="0" y2="1"><stop stop-color="#1e2940"/><stop offset=".55" stop-color="#263149"/><stop offset="1" stop-color="#151b27"/></linearGradient>
  <linearGradient id="ground" x1="0" y1="0" x2="0" y2="1"><stop stop-color="#4b4d45"/><stop offset=".5" stop-color="#5a5648"/><stop offset="1" stop-color="#37362f"/></linearGradient>
  <radialGradient id="lantern" cx=".5" cy=".5" r=".5"><stop stop-color="#ffe6a1"/><stop offset=".3" stop-color="#ffb84b" stop-opacity=".95"/><stop offset=".7" stop-color="#cf6e2c" stop-opacity=".32"/><stop offset="1" stop-color="#cf6e2c" stop-opacity="0"/></radialGradient>
  <radialGradient id="blueGlow"><stop stop-color="#9fe3ff" stop-opacity=".72"/><stop offset=".45" stop-color="#5eb5da" stop-opacity=".28"/><stop offset="1" stop-color="#5eb5da" stop-opacity="0"/></radialGradient>
  <radialGradient id="violetGlow"><stop stop-color="#e2a2ff" stop-opacity=".68"/><stop offset=".45" stop-color="#9450c8" stop-opacity=".25"/><stop offset="1" stop-color="#9450c8" stop-opacity="0"/></radialGradient>
  <filter id="soft"><feGaussianBlur stdDeviation="16"/></filter>
  <filter id="tiny"><feGaussianBlur stdDeviation="3"/></filter>
  <filter id="grain">
    <feTurbulence baseFrequency=".82" numOctaves="3" seed="8" type="fractalNoise" result="noise"/>
    <feColorMatrix in="noise" type="saturate" values="0" result="gray"/>
    <feComponentTransfer><feFuncA type="table" tableValues="0 .13"/></feComponentTransfer>
  </filter>
</defs>

<rect width="1600" height="620" fill="url(#sky)"/>
<path d="M0 220 L120 145 220 178 350 105 470 183 585 118 720 174 850 102 980 168 1100 116 1240 170 1380 95 1600 182 1600 320 0 320Z" fill="#222a36"/>
<path d="M0 255 L130 205 245 238 365 178 505 240 640 184 785 236 940 176 1080 238 1240 180 1390 225 1600 185 1600 340 0 340Z" fill="#18212b" opacity=".9"/>

<g opacity=".96">
  <g fill="#121820">
    <path d="M0 60 C80 90 105 165 92 300 L70 410 0 430Z"/>
    <path d="M90 0 C165 72 175 145 150 290 L135 420 94 420 118 250 105 120Z"/>
    <path d="M195 0 C245 70 250 175 226 298 L210 420 170 420 196 260 178 125Z"/>
    <path d="M1400 0 C1340 70 1330 160 1352 300 L1368 420 1412 420 1388 245 1410 115Z"/>
    <path d="M1515 0 C1450 90 1452 170 1477 310 L1490 430 1600 435 1600 55Z"/>
  </g>
  <g stroke="#2c3440" stroke-width="18" fill="none" opacity=".6">
    <path d="M-30 110 Q170 180 330 95"/>
    <path d="M1270 88 Q1430 150 1640 92"/>
  </g>
</g>

<g opacity=".82">
  <ellipse cx="330" cy="360" rx="240" ry="96" fill="#26373d"/>
  <ellipse cx="1260" cy="360" rx="280" ry="98" fill="#27383d"/>
  <ellipse cx="765" cy="350" rx="520" ry="120" fill="#2f3b39"/>
</g>

<g opacity=".95">
  <rect x="258" y="214" width="18" height="134" rx="8" fill="#4f4031"/>
  <rect x="1324" y="216" width="18" height="138" rx="8" fill="#4f4031"/>
  <path d="M240 224 H295 L286 242 H249Z" fill="#17181b"/>
  <path d="M1306 226 H1362 L1353 244 H1315Z" fill="#17181b"/>
  <rect x="249" y="238" width="37" height="48" rx="7" fill="#231b16" stroke="#7e5e35" stroke-width="4"/>
  <rect x="1315" y="240" width="37" height="48" rx="7" fill="#231b16" stroke="#7e5e35" stroke-width="4"/>
  <circle cx="268" cy="262" r="54" fill="url(#lantern)" filter="url(#soft)"/>
  <circle cx="1334" cy="264" r="54" fill="url(#lantern)" filter="url(#soft)"/>
  <rect x="257" y="247" width="22" height="31" rx="5" fill="#ffc55c"/>
  <rect x="1323" y="249" width="22" height="31" rx="5" fill="#ffc55c"/>
</g>

<g opacity=".92">
  <circle cx="380" cy="360" r="110" fill="url(#blueGlow)" filter="url(#soft)"/>
  <circle cx="1182" cy="360" r="118" fill="url(#violetGlow)" filter="url(#soft)"/>
  <g fill="#6ab7d1" stroke="#a4e8ff" stroke-width="2">
    <path d="M344 379 l18 -50 17 43 -10 19Z"/><path d="M382 385 l15 -40 13 35 -8 15Z"/><path d="M320 390 l11 -29 10 25 -5 10Z"/>
  </g>
  <g fill="#9c63bf" stroke="#e3aff7" stroke-width="2">
    <path d="M1150 385 l18 -53 17 45 -9 18Z"/><path d="M1190 389 l15 -43 14 37 -8 14Z"/><path d="M1220 395 l12 -30 10 26 -5 9Z"/>
  </g>
</g>

<path d="M0 390 C180 350 350 372 520 404 C720 440 920 438 1110 398 C1280 362 1430 360 1600 394 L1600 620 L0 620Z" fill="url(#ground)"/>
<path d="M0 452 C245 410 430 420 615 458 C810 498 1020 498 1215 452 C1370 416 1490 420 1600 438" fill="none" stroke="#736852" stroke-width="4" opacity=".5"/>
<path d="M0 503 C215 468 415 472 600 510 C805 548 1000 548 1200 505 C1385 466 1490 475 1600 495" fill="none" stroke="#2a2b27" stroke-width="3" opacity=".38"/>

<g fill="#232725" opacity=".8">
  <ellipse cx="245" cy="490" rx="70" ry="23"/><ellipse cx="1350" cy="490" rx="78" ry="25"/>
  <ellipse cx="525" cy="535" rx="42" ry="16"/><ellipse cx="1040" cy="540" rx="48" ry="17"/>
</g>
<g fill="#6d6755" opacity=".65">
  <path d="M180 468 l40 -28 56 18 16 28 -53 10Z"/>
  <path d="M1285 468 l46 -31 62 17 20 29 -64 13Z"/>
  <path d="M840 552 l38 -18 50 15 14 20 -58 12Z"/>
</g>

<rect width="1600" height="620" filter="url(#grain)" opacity=".48"/>
<rect width="1600" height="620" fill="none" stroke="#080a0d" stroke-width="28" opacity=".23"/>
</svg>